<svg width="21" height="21" viewBox="0 0 21 21" fill="none" xmlns="http://www.w3.org/2000/svg">
<path d="M10.5 18.375C11.5342 18.375 12.5582 18.1713 13.5136 17.7756C14.4691 17.3798 15.3372 16.7997 16.0685 16.0685C16.7997 15.3372 17.3798 14.4691 17.7756 13.5136C18.1713 12.5582 18.375 11.5342 18.375 10.5C18.375 9.46584 18.1713 8.44181 17.7756 7.48637C17.3798 6.53093 16.7997 5.6628 16.0685 4.93153C15.3372 4.20027 14.4691 3.6202 13.5136 3.22445C12.5582 2.82869 11.5342 2.625 10.5 2.625M10.5 18.375C9.46584 18.375 8.44181 18.1713 7.48637 17.7756C6.53093 17.3798 5.6628 16.7997 4.93153 16.0685C4.20027 15.3372 3.6202 14.4691 3.22445 13.5136C2.82869 12.5582 2.625 11.5342 2.625 10.5C2.625 9.46584 2.82869 8.44181 3.22445 7.48637C3.6202 6.53093 4.20027 5.6628 4.93153 4.93153C5.6628 4.20027 6.53093 3.6202 7.48637 3.22445C8.44181 2.82869 9.46584 2.625 10.5 2.625M10.5 18.375C12.9159 18.375 13.9484 13.8574 13.9484 10.5C13.9484 7.14263 12.9159 2.625 10.5 2.625M10.5 18.375C8.08413 18.375 7.05163 13.8574 7.05163 10.5C7.05163 7.14263 8.08413 2.625 10.5 2.625M3.0625 7.875H17.9375M3.0625 13.125H17.9375" stroke="white" stroke-width="1.5" stroke-linecap="round" stroke-linejoin="round"/>
</svg>
