<svg width="273" height="39" viewBox="0 0 273 39" fill="none" xmlns="http://www.w3.org/2000/svg">
<path fill-rule="evenodd" clip-rule="evenodd" d="M58.5733 13.2225C57.9278 13.6512 58.2295 14.9879 58.2299 15.6264C58.2305 16.733 58.2309 17.8397 58.2312 18.9459C58.2322 21.3435 58.2326 23.7412 58.2326 26.1388C58.233 28.3518 58.233 30.5649 58.233 32.7782C58.233 33.8848 58.233 34.9912 58.233 36.0978C58.233 37.1624 58.6261 38.3249 57.2822 38.3326C56.4138 38.3374 52.1807 38.8586 51.8992 37.9083C51.6359 37.0198 51.8582 35.769 51.8578 34.8445C51.8572 33.5606 51.8566 32.2765 51.8558 30.9926C51.8536 26.4069 51.8512 21.8214 51.8488 17.2357C51.8462 12.6972 51.9337 8.14812 51.8329 3.61083C51.8233 3.18152 51.3982 1.60833 51.8721 1.36927C52.5552 1.02483 54.0151 1.30931 54.7751 1.30851C55.821 1.30732 56.8666 1.30712 57.9123 1.30771C58.9313 1.30831 59.211 1.66969 59.7084 2.50061C63.4144 8.69736 67.5499 14.6453 71.2736 20.8279C71.7459 21.612 72.2192 22.3933 72.6924 23.1766C72.85 23.4374 73.661 24.8781 73.9273 23.8062C74.1518 22.9029 73.9522 21.7359 73.9518 20.8086C73.9512 19.5222 73.9506 18.2361 73.95 16.95C73.9482 12.3561 73.946 7.76245 73.9438 3.16877C73.9432 2.14481 73.6817 1.30273 74.9646 1.30154C75.9093 1.30054 76.8542 1.30433 77.7988 1.30413C78.3208 1.30413 79.8223 1.02722 80.2191 1.42127C80.6934 1.89261 80.3366 3.96862 80.3368 4.61307C80.3368 9.22228 80.3368 13.8317 80.3366 18.4409C80.3366 23.0502 80.3364 27.6593 80.336 32.2685C80.336 33.3748 80.336 34.4812 80.3358 35.5873C80.3358 36.0809 80.6412 38.0115 80.1302 38.2815C79.4429 38.6444 77.8713 38.336 77.0978 38.335C76.4394 38.3344 74.3212 38.6992 73.8711 38.151C72.8844 36.9487 72.134 35.2279 71.3443 33.876C70.4893 32.4116 69.6 30.8091 68.5774 29.4813C67.8883 28.5867 67.3646 27.3854 66.7823 26.387C65.9416 24.9445 65.0262 23.5661 64.172 22.1108C62.3984 19.0895 60.5523 16.0888 58.5733 13.2225C58.6207 13.2908 58.2597 13.4307 58.5733 13.2225Z" fill="#7B7B7B"/>
<path fill-rule="evenodd" clip-rule="evenodd" d="M194.982 33.6053C194.982 34.0836 197.976 33.1689 198.287 33.0837C199.676 32.7051 201.003 31.2138 201.722 30.0516C203.443 27.2775 203.981 24.3124 204.075 21.1026C204.098 20.261 204.1 19.4837 204.073 18.6531C204.043 17.7122 204.258 16.4733 203.991 15.5701C203.794 14.891 203.602 14.2543 203.501 13.55C203.385 12.7574 202.893 12.1257 202.826 11.3163C202.8 11.032 202.166 10.0403 201.995 9.76956C201.58 9.10777 201.001 8.47607 200.435 7.94177C199.325 6.89411 197.769 6.1875 196.275 6.02514C192.872 5.6546 190.178 6.94391 188.112 9.61736C186.117 12.2012 185.892 16.039 185.716 19.1544C185.612 20.9778 185.995 22.9334 186.125 24.7616C186.174 25.4601 186.528 26.333 186.743 27.0051C186.974 27.7285 187.231 28.4977 187.625 29.1471C188.507 30.6012 189.484 31.5299 190.766 32.5981C191.9 33.5433 193.578 33.6053 194.982 33.6053C194.982 33.6065 194.44 33.6053 194.982 33.6053ZM211.802 19.6805C211.802 20.6761 211.826 21.6722 211.794 22.6676C211.762 23.6283 211.364 24.411 211.226 25.3154C210.926 27.2936 210.125 28.8656 209.392 30.6874C208.872 31.9773 207.487 33.7715 206.332 34.5257C205.802 34.8707 205.338 35.4471 204.85 35.8688C204.045 36.5627 203.019 37.028 202.078 37.5033C198.66 39.2319 194.732 39.1759 191.062 38.4566C187.729 37.8029 185.044 36.0961 182.679 33.6093C180.426 31.2416 179.124 27.8526 178.461 24.7277C178.049 22.7882 177.9 20.6291 177.977 18.6523C178.056 16.593 178.633 14.6093 178.983 12.5888C179.12 11.8007 179.621 11.0539 179.93 10.321C180.28 9.48668 180.609 8.63006 181.182 7.91906C182.436 6.3638 183.593 4.68901 185.33 3.59871C188.553 1.57649 192.078 0.663094 195.893 0.755928C200.503 0.867886 204.816 2.9939 207.72 6.51102C209.206 8.33124 209.983 10.1776 210.85 12.3454C211.264 13.3877 211.559 14.6882 211.742 15.7986C211.798 16.1378 211.806 19.6805 211.802 19.6805C211.802 20.6764 211.8 19.6805 211.802 19.6805Z" fill="white"/>
<path fill-rule="evenodd" clip-rule="evenodd" d="M225.55 12.3418C225.56 12.3418 225.558 17.1214 225.558 17.5634C225.56 18.5103 225.648 18.5756 226.554 18.7208C227.455 18.8651 228.355 19.1451 229.268 19.2007C230.64 19.2839 232.78 18.6569 233.788 17.7114C235.007 16.5677 235.694 15.2193 235.706 13.5498C235.72 11.7992 235.774 10.1576 234.547 8.76035C233.487 7.55331 232.24 6.84331 230.662 6.49668C229.945 6.3393 225.801 5.49443 225.58 6.39967C225.371 7.26405 225.55 8.37527 225.55 9.26316C225.55 10.2893 225.55 11.3155 225.55 12.3418C225.552 12.3418 225.55 10.4602 225.55 12.3418ZM218 19.8249C218 15.1997 218 10.5744 218 5.94904C218 4.83902 218 3.7288 218 2.61878C218 1.69443 218.088 1.32409 219.078 1.32887C221.403 1.33943 223.727 1.32529 226.052 1.33106C227.993 1.33604 230.377 1.04977 232.256 1.62729C233.084 1.88229 233.961 1.81077 234.772 2.09007C235.565 2.36339 236.304 2.70126 237.085 2.9929C240.597 4.30752 242.511 7.5553 243.135 11.0987C243.736 14.5278 242.485 18.0959 240.159 20.6058C237.762 23.1904 233.834 24.0024 230.465 24.0329C229.483 24.0418 228.365 24.0146 227.421 23.7179C226.961 23.5737 225.534 23.0033 225.544 23.9182C225.566 26.1776 225.546 28.4379 225.546 30.6973C225.546 32.8712 225.548 35.0448 225.548 37.2184C225.548 38.245 225.479 38.3617 224.449 38.3627C223.253 38.3639 222.06 38.3662 220.865 38.3635C220.122 38.362 219.159 38.5199 218.446 38.2799C217.787 38.0578 217.992 37.6554 217.992 36.9987C217.992 34.9675 217.992 32.9363 217.992 30.9047C217.992 29.9712 217.984 19.8249 218 19.8249C218 13.9046 217.998 19.8249 218 19.8249Z" fill="#7B7B7B"/>
<path fill-rule="evenodd" clip-rule="evenodd" d="M139.408 5.77752C138.933 6.66901 138.422 7.52861 137.912 8.40037C137.554 9.01395 137.358 9.76937 136.814 10.2527C136.422 10.6019 136.396 10.8298 136.013 10.3744C135.744 10.0539 135.474 9.73451 135.212 9.4082C134.484 8.50357 133.664 7.70572 132.657 7.12062C129.45 5.25777 124.909 5.32332 123.133 8.98925C121.143 13.0976 126.076 15.452 128.967 16.8154C132.041 18.2571 135.628 19.0252 137.931 21.8384C140.384 24.8338 140.404 28.3863 139.473 31.9865C139.08 33.5023 137.72 34.9442 136.623 35.9754C135.486 37.0439 133.923 37.6504 132.508 38.2113C131.066 38.7835 129.173 38.8755 127.638 38.969C125.702 39.0867 123.478 38.8763 121.644 38.2169C120.03 37.6362 118.344 37.1697 116.905 36.1541C116.187 35.6475 115.437 35.1456 114.769 34.5741C113.893 33.8241 114.469 33.1039 114.96 32.2844C115.422 31.5122 115.838 30.7162 116.316 29.9525C116.815 29.1571 116.942 28.5104 117.765 29.3172C119.133 30.6566 120.511 32.0064 122.251 32.8228C124.107 33.6939 125.97 33.6426 127.982 33.5906C129.377 33.5541 131.542 32.311 131.761 30.8006C131.875 30.0198 132.274 29.4371 132.007 28.609C131.764 27.8543 131.711 27.1452 131.261 26.4566C130.305 24.9906 128.468 24.0984 126.882 23.5273C123.725 22.3906 120.766 21.1519 118.086 19.1223C115.558 17.2074 114.704 13.5594 115.095 10.5559C115.489 7.5336 117.77 3.96189 120.61 2.63114C123.821 1.12688 127.689 -0.0126305 131.236 1.16652C132.015 1.4253 132.757 1.53606 133.535 1.8307C134.18 2.07473 134.788 2.29068 135.439 2.56281C136.186 2.87498 136.832 3.3252 137.453 3.83838C138.177 4.43761 139.149 4.83265 139.408 5.77752C139.381 5.67871 139.173 6.21918 139.408 5.77752Z" fill="#7B7B7B"/>
<path fill-rule="evenodd" clip-rule="evenodd" d="M111.857 38.0677C111.136 38.5664 110.026 38.3659 109.205 38.3662C108.101 38.3664 106.996 38.3666 105.892 38.3668C103.499 38.367 101.107 38.367 98.7139 38.3662C96.5052 38.3654 94.2965 38.3638 92.0879 38.361C91.0796 38.3598 89.8509 38.5494 88.8724 38.2853C87.857 38.0114 88.308 36.2659 88.308 35.3889C88.308 26.1295 88.3082 16.8696 88.3084 7.61013C88.3084 6.49892 88.3084 5.3877 88.3086 4.27649C88.3086 3.6386 87.9954 2.02776 88.4733 1.52972C88.9281 1.05619 90.3182 1.33509 90.8834 1.33509C92.1697 1.33509 93.4561 1.33489 94.7426 1.33489C99.3367 1.33489 103.931 1.33469 108.525 1.3345C108.931 1.3345 110.533 1.05997 110.768 1.51996C111.029 2.03194 110.783 3.0569 110.744 3.58999C110.693 4.28704 110.85 5.53851 110.274 6.0479C109.569 6.67124 107.771 6.30468 106.892 6.30349C104.717 6.3007 102.543 6.3009 100.368 6.30169C99.2807 6.3019 98.1934 6.30229 97.1061 6.30249C95.9803 6.30269 95.8608 6.40269 95.8596 7.53403C95.8578 9.15683 95.8578 10.7796 95.86 12.4026C95.861 13.1238 95.8622 13.8451 95.864 14.5663C95.8654 15.1229 95.6518 16.1672 95.9446 16.6688C96.2817 17.2457 99.1448 16.8467 99.769 16.8465C101.377 16.8459 102.985 16.8453 104.593 16.8447C105.163 16.8447 108.271 16.4809 108.397 17.1541C108.616 18.3262 108.134 19.7713 108.004 20.9406C107.871 22.1484 105.376 21.6352 104.568 21.6354C102.77 21.636 100.972 21.6362 99.1733 21.6328C98.4725 21.6314 95.844 21.1296 95.849 22.2424C95.8564 23.857 95.8586 25.4714 95.859 27.0861C95.8594 28.7005 95.858 30.3154 95.8578 31.9298C95.8578 32.2456 95.7259 33.0437 96.0094 33.3082C96.3915 33.6643 97.64 33.4189 98.1177 33.4189C101.43 33.4193 104.743 33.4195 108.056 33.4213C108.972 33.4219 111.883 32.8984 112.195 34.0593C112.346 34.6189 112.019 35.4374 112.012 36.0356C112.004 36.7224 111.937 37.3871 111.857 38.0677C111.896 37.7348 111.323 38.4367 111.857 38.0677Z" fill="#7B7B7B"/>
<path fill-rule="evenodd" clip-rule="evenodd" d="M272.527 38.1406C271.8 38.6109 270.577 38.3706 269.76 38.3711C268.658 38.3716 267.559 38.372 266.457 38.3724C264.072 38.373 261.688 38.3733 259.303 38.3724C257.1 38.3716 254.898 38.3701 252.697 38.3674C251.737 38.3665 250.48 38.5812 249.558 38.2927C248.645 38.0077 249.069 36.2617 249.069 35.4657C249.071 26.2411 249.071 17.0165 249.073 7.7921C249.073 6.68506 249.073 5.57823 249.073 4.4712C249.073 3.63829 248.85 2.46492 249.137 1.67105C249.348 1.08636 250.675 1.33916 251.103 1.33916C252.4 1.33916 253.695 1.33876 254.992 1.33876C259.606 1.33876 264.22 1.33697 268.834 1.33876C269.393 1.33876 271.049 1.03835 271.473 1.45988C271.838 1.82046 271.583 3.20679 271.551 3.67374C271.505 4.37438 271.595 5.57684 270.987 6.05873C270.242 6.6496 268.573 6.30656 267.676 6.30735C265.513 6.30915 263.349 6.31134 261.186 6.30855C260.104 6.30716 259.022 6.30437 257.94 6.29998C256.779 6.2948 256.62 6.48963 256.622 7.62535C256.624 9.2105 256.622 10.7956 256.624 12.381C256.624 13.6313 256.321 15.3588 256.672 16.5615C256.869 17.2376 259.855 16.8521 260.453 16.8521C262.07 16.8521 263.688 16.8521 265.305 16.8521C265.905 16.8521 268.82 16.4653 269.118 17.0368C269.593 17.9434 268.889 19.9914 268.766 20.9834C268.618 22.1562 265.612 21.6405 264.789 21.6405C262.991 21.6405 261.192 21.6405 259.395 21.6405C258.676 21.6405 257.954 21.6405 257.235 21.6405C256.49 21.6405 256.626 22.1969 256.626 22.7953C256.626 24.4151 256.626 26.0348 256.626 27.6545C256.626 29.2741 256.626 30.8939 256.626 32.5137C256.626 34.0521 258.893 33.4226 259.992 33.4228C263.297 33.4236 266.602 33.4243 269.907 33.4267C270.846 33.4275 272.862 32.9297 272.993 34.3207C273.047 34.8967 272.784 35.5408 272.774 36.1394C272.762 36.8539 272.726 37.4524 272.527 38.1406C272.603 37.8772 272.007 38.4764 272.527 38.1406Z" fill="#7B7B7B"/>
<path fill-rule="evenodd" clip-rule="evenodd" d="M170.82 10.5672C170.685 10.2305 170.12 10.0825 169.853 9.72411C169.453 9.18883 168.831 8.76191 168.335 8.31627C167.03 7.14409 165.054 6.20799 163.314 6.08707C162.355 6.01993 161.459 5.91076 160.494 6.01176C159.606 6.1042 159.08 6.46298 158.253 6.6606C156.707 7.03054 155.289 8.40273 154.272 9.58048C151.955 12.2651 151.005 16.195 150.866 19.6591C150.742 22.7732 151.528 26.6176 153.49 29.122C155.688 31.9265 158.832 33.8509 162.558 33.5617C164.021 33.4483 165.809 32.7668 167.051 31.9895C168.614 31.0119 170.27 29.43 171.177 27.8107C171.375 27.4574 171.597 27.1195 171.816 26.7792C172.207 26.1734 172.393 26.6045 172.903 26.9412C173.543 27.3641 174.169 27.8984 174.766 28.3811C175.566 29.0289 175.631 29.1879 175.162 30.1166C174.702 31.0297 174.092 31.8213 173.511 32.6574C171.748 35.1933 168.496 37.7699 165.412 38.3534C161.751 39.0472 158.06 39.346 154.517 37.9724C153.147 37.4412 151.586 36.8489 150.424 35.9016C149.805 35.3966 149.172 34.8881 148.572 34.3609C147.814 33.6967 147.392 32.8493 146.732 32.111C146.103 31.4077 145.839 30.6288 145.448 29.789C145.099 29.0381 144.615 28.3337 144.374 27.5287C144.154 26.795 143.909 26.0142 143.765 25.2598C143.574 24.2577 143.678 23.2168 143.44 22.2176C142.983 20.3031 143.598 18.4907 143.651 16.6109C143.699 14.9075 144.356 13.0845 145.055 11.5447C148.212 4.59754 155.139 0.171009 162.834 0.797935C164.495 0.933201 166.006 1.39857 167.599 1.79241C168.702 2.06474 170.169 2.59525 171.068 3.31879C171.737 3.85786 174.21 5.22945 173.737 6.09802C172.884 7.66623 171.897 9.14839 170.82 10.5672C171.131 10.1572 170.782 10.472 170.82 10.5672Z" fill="#7B7B7B"/>
<path fill-rule="evenodd" clip-rule="evenodd" d="M30.4709 5.73189C29.5958 7.21224 28.7395 8.75356 27.6909 10.12C27.1921 10.77 26.4191 9.75621 26.0253 9.29523C25.3495 8.50375 24.5098 7.92902 23.6152 7.41664C22.2264 6.62177 20.909 6.06716 19.2828 6.01696C18.3717 5.98847 17.5381 5.93508 16.6082 6.02453C15.9073 6.09206 14.6531 6.42873 14.1087 6.85904C12.9038 7.81128 11.149 8.5412 10.4295 10.0269C10.0688 10.7716 9.35685 11.39 9.13351 12.1974C8.92722 12.9432 8.61751 13.7773 8.29044 14.4778C7.63949 15.8715 7.49615 17.9383 7.42768 19.4603C7.34666 21.2616 7.43601 23.6143 8.15069 25.2935C9.52136 28.514 11.2179 31.1719 14.5128 32.7069C17.6433 34.1655 21.6551 33.5063 24.3716 31.4097C25.8649 30.2571 27.0122 28.8013 28.0429 27.2432C28.3409 26.7926 28.3839 26.265 28.9645 26.577C29.3093 26.7623 29.6167 27.0052 29.9195 27.251C30.5299 27.7466 31.7214 28.3403 32.0726 29.0588C32.517 29.9686 29.8884 32.8439 29.3663 33.4422C28.3455 34.6109 27.1411 35.8966 25.7627 36.6204C22.8177 38.1673 19.8349 38.9544 16.4607 38.9219C13.4733 38.893 9.83823 37.9552 7.42192 36.1399C4.4888 33.936 1.96042 31.0177 0.942714 27.3986C-0.0308656 23.9359 -0.171016 20.5604 0.163835 16.9827C0.844352 9.71198 5.88455 3.90011 12.6077 1.48484C15.9778 0.27422 19.3501 0.835007 22.7643 1.28643C24.1596 1.4709 25.5252 2.19345 26.7629 2.82376C28.0945 3.50149 29.6276 4.4872 30.4709 5.73189C30.3223 5.51275 30.2966 6.02652 30.4709 5.73189Z" fill="#7B7B7B"/>
<path fill-rule="evenodd" clip-rule="evenodd" d="M36.7097 19.8382C36.7097 16.0492 36.7097 12.2604 36.7097 8.47131C36.7097 6.48654 36.7097 4.50177 36.7099 2.517C36.7099 2.15443 36.5526 1.40579 37.0866 1.33686C38.054 1.21175 39.1033 1.32252 40.0784 1.32212C40.7791 1.32212 43.8545 0.85078 44.0396 1.76597C44.4042 3.56945 44.0639 5.78451 44.0641 7.62664C44.0645 11.7163 44.0649 15.8062 44.0651 19.8956C44.0655 23.7996 44.0657 27.7032 44.0661 31.607C44.0661 33.652 44.0663 35.6966 44.0665 37.7416C44.0667 38.8849 40.2914 38.3566 39.5177 38.3568C38.722 38.357 37.8572 38.452 37.0687 38.3404C36.5557 38.2678 36.7071 37.5382 36.7071 37.1916C36.7069 35.2034 36.7069 33.2149 36.7067 31.2266C36.7067 30.2743 36.7044 19.8382 36.7097 19.8382C36.7097 13.8841 36.7087 19.8382 36.7097 19.8382Z" fill="#7B7B7B"/>
</svg>
