<svg width="23" height="23" viewBox="0 0 23 23" fill="none" xmlns="http://www.w3.org/2000/svg">
<path d="M11.5 5.75C10.7892 5.75 10.0944 5.96077 9.50342 6.35566C8.91243 6.75054 8.45181 7.31181 8.17981 7.96848C7.9078 8.62515 7.83664 9.34774 7.9753 10.0449C8.11397 10.742 8.45624 11.3823 8.95884 11.8849C9.46143 12.3875 10.1018 12.7298 10.7989 12.8684C11.496 13.0071 12.2186 12.9359 12.8753 12.6639C13.5319 12.3919 14.0932 11.9313 14.4881 11.3403C14.883 10.7493 15.0938 10.0545 15.0938 9.34375C15.0938 8.39063 14.7151 7.47654 14.0412 6.80259C13.3672 6.12863 12.4531 5.75 11.5 5.75ZM11.5 11.5C11.0735 11.5 10.6566 11.3735 10.3021 11.1366C9.94746 10.8997 9.67109 10.5629 9.50788 10.1689C9.34468 9.77491 9.30198 9.34136 9.38518 8.92309C9.46838 8.50482 9.67374 8.12061 9.9753 7.81905C10.2769 7.51749 10.6611 7.31213 11.0793 7.22893C11.4976 7.14573 11.9312 7.18843 12.3252 7.35163C12.7192 7.51484 13.0559 7.79121 13.2929 8.1458C13.5298 8.5004 13.6562 8.91728 13.6562 9.34375C13.6562 9.91562 13.4291 10.4641 13.0247 10.8684C12.6203 11.2728 12.0719 11.5 11.5 11.5ZM11.5 1.4375C9.40386 1.43988 7.39426 2.27362 5.91206 3.75581C4.42987 5.23801 3.59613 7.24761 3.59375 9.34375C3.59375 12.1648 4.89738 15.1548 7.36719 17.9912C8.47696 19.2729 9.726 20.427 11.0912 21.4322C11.2121 21.5169 11.356 21.5623 11.5036 21.5623C11.6511 21.5623 11.7951 21.5169 11.916 21.4322C13.2787 20.4266 14.5253 19.2725 15.6328 17.9912C18.099 15.1548 19.4062 12.1648 19.4062 9.34375C19.4039 7.24761 18.5701 5.23801 17.0879 3.75581C15.6057 2.27362 13.5961 1.43988 11.5 1.4375ZM11.5 19.9453C10.0149 18.7773 5.03125 14.4873 5.03125 9.34375C5.03125 7.62813 5.71278 5.98278 6.9259 4.76965C8.13903 3.55653 9.78438 2.875 11.5 2.875C13.2156 2.875 14.861 3.55653 16.0741 4.76965C17.2872 5.98278 17.9688 7.62813 17.9688 9.34375C17.9688 14.4855 12.9851 18.7773 11.5 19.9453Z" fill="white"/>
</svg>
