<svg width="27" height="33" viewBox="0 0 27 33" fill="none" xmlns="http://www.w3.org/2000/svg">
<path d="M22.9685 24L18.143 19.1745M18.143 19.1745C18.9684 18.3491 19.6232 17.3692 20.0699 16.2907C20.5166 15.2122 20.7465 14.0563 20.7465 12.889C20.7465 11.7217 20.5166 10.5658 20.0699 9.48734C19.6232 8.40887 18.9684 7.42895 18.143 6.60353C17.3176 5.77811 16.3377 5.12335 15.2592 4.67664C14.1807 4.22992 13.0248 4 11.8575 4C10.6902 4 9.53431 4.22992 8.45584 4.67664C7.37738 5.12335 6.39746 5.77811 5.57204 6.60353C3.90502 8.27055 2.96851 10.5315 2.96851 12.889C2.96851 15.2465 3.90502 17.5075 5.57204 19.1745C7.23905 20.8415 9.50001 21.778 11.8575 21.778C14.215 21.778 16.476 20.8415 18.143 19.1745Z" stroke="white" stroke-linecap="round" stroke-linejoin="round"/>
</svg>
